<?xml version="1.0" encoding="utf-8"?>
<!-- Generator: Adobe Illustrator 19.0.0, SVG Export Plug-In . SVG Version: 6.00 Build 0)  -->
<svg version="1.1" id="Layer_1" xmlns="http://www.w3.org/2000/svg" xmlns:xlink="http://www.w3.org/1999/xlink" x="0px" y="0px"
	 viewBox="156.3 271.4 1059.5 251.6" style="enable-background:new 156.3 271.4 1059.5 251.6;" xml:space="preserve">
<style type="text/css">
	.st0{fill:#2BA9E0;}
	.st1{fill:#2E3236;}
	.st2{fill:#215499;}
</style>
<g id="XMLID_17_">
	<path class="st0" d="M865,358.7c-3.1,0.1-5.6,1.1-7.5,3c-1.7,1.8-2.8,4.3-3.2,7.7h-20.7c0.1-5.9,1.4-11,3.9-15.4
		c2.4-4.5,5.8-8,10.4-10.5c4.6-2.5,10.2-3.8,16.8-3.8c6.8,0,12.6,1.3,17.3,3.8c4.7,2.4,8.3,5.6,10.8,9.8c2.5,4,3.7,8.5,3.7,13.3
		c0,2.9-0.6,5.8-1.9,8.6c-1.2,2.9-3.2,6.1-5.8,9.6s-6,7.8-10.3,12.8l-11.7,14.3h30.4v17.7h-61.9v-10.3l26.5-32.5
		c2.6-3,4.8-5.6,6.7-7.9c1.9-2.3,3.3-4.3,4.3-6c1-1.8,1.5-3.6,1.5-5.4c0-2.1-0.8-4.1-2.2-5.8C870.9,359.8,868.5,358.8,865,358.7z
		 M437.9,392l-51-22.6v-34l89.5,39.5L437.9,392z M488.3,379.9v34.2l-101.4,44.5v-34L488.3,379.9z M291.4,335.4v34l-51.1,22.5
		l-38.6-17L291.4,335.4z M291.4,458.7L190,414.1v-34.2l101.4,44.7V458.7z"/>
	<path class="st1" d="M716.8,354.4c2.6,3.8,4.2,8.6,4.8,14.5h-21.8c-0.5-3.3-1.9-5.9-4.1-7.9c-2.4-2.1-5.7-3.2-10.1-3.2
		c-3.7,0-6.7,0.8-8.9,2.3s-3.4,3.7-3.4,6.6c0,2.4,0.8,4.2,2.4,5.4c1.7,1.3,4.2,2.2,7.5,2.8l12.3,2.8c5.3,1.1,9.9,2.7,13.8,4.7
		c4,2,7,4.6,9.1,7.9c2.1,3.4,3.2,7.6,3.3,12.6c-0.1,5.9-1.7,11-4.7,15.2c-3,4.3-7.1,7.5-12.5,9.8c-5.5,2.3-11.8,3.4-19,3.6
		c-6.7,0-12.9-1.1-18.5-3.2c-5.7-2.3-10.4-5.6-14.2-10.1c-3.7-4.6-6-10.6-6.7-17.9H668c0.7,4,2.7,7.1,5.8,9.2
		c3.2,2.1,7.4,3.3,12.5,3.4c4.1-0.1,7.1-0.8,9.1-2.1c2.1-1.4,3.2-3.3,3.2-5.8c0.1-1.5-0.5-2.9-1.9-4.3c-1.2-1.4-3.7-2.4-7.3-3.2
		l-14.4-3.2c-8.6-1.9-15-4.9-19.2-9c-4.1-4.3-6.2-9.9-6.2-16.9c0-5.9,1.5-11,4.5-15.2c2.9-4.3,6.9-7.6,12.1-10
		c5.1-2.3,11.1-3.4,18.1-3.4c3.6-0.1,7.4,0.3,11.4,1.1c4.1,0.9,8,2.4,11.7,4.5C711.2,347.5,714.3,350.5,716.8,354.4z M740.7,341.6
		h35.2c9.2,0.1,17.3,2,24.2,5.6c7.1,3.6,12.6,8.8,16.6,15.4c4.1,6.5,6.2,14.1,6.2,22.7c0,8.8-2.1,16.4-6.2,22.9
		c-4,6.6-9.5,11.8-16.6,15.6c-7,3.6-15,5.5-24.2,5.6h-35.2V341.6z M775.9,361.3h-13.4V410h13.4c4.7-0.1,8.9-1.3,12.7-3.4
		c3.9-2.1,6.8-5,8.9-8.6c2.2-3.8,3.4-8,3.4-12.6s-1.1-8.8-3.4-12.4c-2.1-3.6-5.1-6.5-8.9-8.5C784.9,362.4,780.6,361.3,775.9,361.3z
		 M630.3,356.6c3,4.9,4.5,10.6,4.5,17.1c0,6.9-1.6,12.8-4.8,17.9c-3.1,5-7.5,8.8-13.2,11.5c-5.7,2.8-12.6,4.1-20.7,4.1h-11.6v22.4
		h-21.8v-88h35.2c7.6,0,14.1,1.3,19.6,3.9C623,348.2,627.3,351.9,630.3,356.6z M597.3,360.9h-12.9V388h12.9c4.8,0,8.7-1.3,11.6-3.8
		c2.7-2.5,4.2-6,4.3-10.5c-0.1-4-1.6-7.1-4.3-9.4C606,362.1,602.2,360.9,597.3,360.9z M919.8,361.9c4-6.9,9.4-12.3,16.4-16.2
		c7-3.9,14.9-5.9,23.7-6c7.9,0.1,15,1.8,21.2,4.9c6.2,3.3,11.3,7.7,15.3,13.3c3.9,5.8,6.2,12.5,7.1,20.1h-22.2
		c-1.2-5.5-3.7-9.8-7.3-13c-3.7-3.3-8.5-4.9-14.4-4.9c-4.7,0-8.9,1.1-12.5,3.4c-3.6,2.1-6.5,5.1-8.6,8.8c-2,3.9-3,8.3-3,13.2
		s1,9.3,3,13.2c2.1,3.8,5,6.7,8.6,8.8c3.6,2.3,7.8,3.4,12.5,3.4c5.8,0,10.6-1.6,14.4-4.9c3.6-3.1,6-7.5,7.3-13h22.2
		c-0.9,7.6-3.2,14.3-7.1,20.1c-4,5.6-9.1,10.1-15.3,13.3c-6.2,3.1-13.3,4.8-21.2,4.9c-8.8-0.1-16.7-2.1-23.7-6s-12.4-9.3-16.4-16.2
		c-4-6.9-6-14.8-6.2-23.7C913.8,376.7,915.8,368.8,919.8,361.9z M1110,368.3c0-5.9,1.5-11,4.5-15.2c2.9-4.3,6.9-7.6,12.1-10
		c5.1-2.3,11.1-3.4,18.1-3.4c3.6-0.1,7.4,0.3,11.4,1.1c4.1,0.9,8,2.4,11.7,4.5c3.7,2.1,6.8,5.1,9.3,9c2.6,3.8,4.2,8.6,4.8,14.5
		h-21.8c-0.5-3.3-1.9-5.9-4.1-7.9c-2.4-2.1-5.7-3.2-10.1-3.2c-3.7,0-6.7,0.8-8.9,2.3c-2.2,1.5-3.4,3.7-3.4,6.6
		c0,2.4,0.8,4.2,2.4,5.4c1.7,1.3,4.2,2.2,7.5,2.8l12.3,2.8c5.3,1.1,9.9,2.7,13.8,4.7c4,2,7,4.6,9.1,7.9c2.1,3.4,3.2,7.6,3.4,12.6
		c-0.1,5.9-1.7,11-4.7,15.2c-3,4.3-7.1,7.5-12.5,9.8c-5.5,2.3-11.8,3.4-19,3.6c-6.7,0-12.9-1.1-18.5-3.2
		c-5.7-2.3-10.4-5.6-14.2-10.1c-3.7-4.6-6-10.6-6.7-17.9h21.6c0.7,4,2.7,7.1,5.8,9.2c3.2,2.1,7.4,3.3,12.5,3.4
		c4.1-0.1,7.1-0.8,9.1-2.1c2.1-1.4,3.2-3.3,3.2-5.8c0.1-1.5-0.5-2.9-1.9-4.3c-1.2-1.4-3.7-2.4-7.3-3.2l-14.4-3.2
		c-8.6-1.9-15-4.9-19.2-9C1112,380.9,1110,375.3,1110,368.3z M1021.2,368.3c0-5.9,1.5-11,4.5-15.2c2.9-4.3,6.9-7.6,12.1-10
		c5.1-2.3,11.1-3.4,18.1-3.4c3.6-0.1,7.4,0.3,11.4,1.1c4.1,0.9,8,2.4,11.7,4.5c3.7,2.1,6.8,5.1,9.3,9c2.6,3.8,4.2,8.6,4.8,14.5
		h-21.8c-0.5-3.3-1.9-5.9-4.1-7.9c-2.4-2.1-5.7-3.2-10.1-3.2c-3.7,0-6.7,0.8-8.9,2.3c-2.2,1.5-3.3,3.7-3.3,6.6
		c0,2.4,0.8,4.2,2.4,5.4c1.7,1.3,4.2,2.2,7.5,2.8l12.3,2.8c5.3,1.1,9.9,2.7,13.8,4.7c4,2,7,4.6,9.1,7.9c2.1,3.4,3.2,7.6,3.4,12.6
		c-0.1,5.9-1.7,11-4.7,15.2c-3,4.3-7.1,7.5-12.5,9.8c-5.5,2.3-11.8,3.4-19,3.6c-6.7,0-12.9-1.1-18.5-3.2
		c-5.7-2.3-10.4-5.6-14.2-10.1c-3.7-4.6-6-10.6-6.7-17.9h21.6c0.7,4,2.7,7.1,5.8,9.2c3.2,2.1,7.4,3.3,12.5,3.4
		c4.1-0.1,7.1-0.8,9.1-2.1c2.1-1.4,3.2-3.3,3.2-5.8c0.1-1.5-0.5-2.9-1.9-4.3c-1.2-1.4-3.7-2.4-7.3-3.2l-14.3-3.2
		c-8.6-1.9-15-4.9-19.2-9C1023.3,380.9,1021.2,375.3,1021.2,368.3z"/>
	<path class="st2" d="M337.6,279.4l66.5,29.1l-66.5,29.3l-66.5-29.3L337.6,279.4z M337.6,456.6l66.5,29.1L337.6,515L271,485.7
		L337.6,456.6z M271.1,397.2l66.6-29.1l66.5,29.1l-66.5,29.3L271.1,397.2z"/>
</g>
</svg>
